<svg width="64" height="64" viewBox="0 0 64 64" fill="none" xmlns="http://www.w3.org/2000/svg">
<path fill-rule="evenodd" clip-rule="evenodd" d="M9.59961 54.4C9.59961 53.5513 9.93675 52.7374 10.5369 52.1372C11.137 51.5371 11.9509 51.2 12.7996 51.2H51.1996C52.0483 51.2 52.8622 51.5371 53.4624 52.1372C54.0625 52.7374 54.3996 53.5513 54.3996 54.4C54.3996 55.2487 54.0625 56.0626 53.4624 56.6627C52.8622 57.2629 52.0483 57.6 51.1996 57.6H12.7996C11.9509 57.6 11.137 57.2629 10.5369 56.6627C9.93675 56.0626 9.59961 55.2487 9.59961 54.4ZM20.1372 21.4624C19.5373 20.8623 19.2003 20.0485 19.2003 19.2C19.2003 18.3515 19.5373 17.5377 20.1372 16.9376L29.7372 7.3376C30.3373 6.73769 31.1511 6.40068 31.9996 6.40068C32.8481 6.40068 33.6619 6.73769 34.262 7.3376L43.862 16.9376C44.4449 17.5411 44.7675 18.3495 44.7602 19.1885C44.7529 20.0275 44.4163 20.8301 43.823 21.4234C43.2297 22.0167 42.4271 22.3533 41.5881 22.3606C40.7491 22.3678 39.9407 22.0453 39.3372 21.4624L35.1996 17.3248V41.6C35.1996 42.4487 34.8625 43.2626 34.2624 43.8627C33.6622 44.4629 32.8483 44.8 31.9996 44.8C31.1509 44.8 30.337 44.4629 29.7369 43.8627C29.1368 43.2626 28.7996 42.4487 28.7996 41.6V17.3248L24.662 21.4624C24.0619 22.0623 23.2481 22.3993 22.3996 22.3993C21.5511 22.3993 20.7373 22.0623 20.1372 21.4624Z" fill="black"/>
</svg>
